<svg width="96" height="96" viewBox="0 0 96 96" fill="none" xmlns="http://www.w3.org/2000/svg">
<path d="M8.799 44.1108C9.30808 44.1108 9.73468 43.7265 9.80319 43.2221C12.1494 25.9458 25.8896 12.2055 43.1659 9.85934C43.6704 9.79083 44.0546 9.36423 44.0546 8.85515V1.85547C44.0546 1.30318 44.5023 0.855469 45.0546 0.855469H51.544C52.0963 0.855469 52.544 1.30318 52.544 1.85547V8.88179C52.544 9.37944 52.9101 9.8004 53.4018 9.87769C56.8617 10.4216 60.1764 11.2562 63.2341 12.6048C63.8527 12.8776 63.9898 13.6799 63.5192 14.1653L58.4682 19.3741C58.1858 19.6653 57.7563 19.7548 57.3747 19.6172C54.5249 18.5891 51.4998 18.2384 48.2993 18.2384C31.5227 18.2384 18.1823 31.5789 18.1823 48.3555C18.1823 51.556 18.533 54.5811 19.561 57.4309C19.6987 57.8124 19.6092 58.242 19.318 58.5244L14.1092 63.5753C13.6238 64.046 12.8214 63.9089 12.5486 63.2903C11.2 60.2326 10.3655 56.9179 9.82154 53.4579C9.74425 52.9663 9.32329 52.6002 8.82564 52.6002H1.79931C1.24703 52.6002 0.799315 52.1524 0.799315 51.6002V45.1108C0.799315 44.5585 1.24703 44.1108 1.79931 44.1108H8.799ZM86.4007 14.2973C86.7912 14.6878 86.7912 15.321 86.4007 15.7115L78.8554 23.2569C78.4916 23.6207 78.4643 24.2003 78.7818 24.6052C82.9392 29.9085 85.7113 36.2261 86.7823 43.2422C86.858 43.7383 87.2809 44.1108 87.7827 44.1108H94.7993C95.3516 44.1108 95.7993 44.5585 95.7993 45.1108V51.6001C95.7993 52.1524 95.3516 52.6002 94.7993 52.6002H87.7996C87.2906 52.6002 86.864 52.9844 86.7954 53.4889C84.4493 70.7652 70.709 84.5054 53.4327 86.8516C52.9283 86.9201 52.544 87.3467 52.544 87.8558V94.8555C52.544 95.4078 52.0963 95.8555 51.544 95.8555H45.0546C44.5024 95.8555 44.0546 95.4078 44.0546 94.8555V87.8389C44.0546 87.337 43.6822 86.9142 43.1861 86.8384C36.1699 85.7674 29.8524 82.9954 24.5491 78.8379C24.1442 78.5205 23.5645 78.5477 23.2007 78.9115L15.6554 86.4569C15.2648 86.8474 14.6317 86.8474 14.2411 86.4569L9.59153 81.8073C9.201 81.4167 9.201 80.7836 9.59153 80.393L80.3369 9.64768C80.7274 9.25716 81.3606 9.25716 81.7511 9.64768L86.4007 14.2973ZM30.6957 71.4165C30.2743 71.838 30.312 72.5335 30.7922 72.8865C35.7049 76.4977 41.8226 78.4725 48.2993 78.4725C65.0759 78.4725 78.4163 65.1321 78.4163 48.3555C78.4163 41.8787 76.4415 35.761 72.8303 30.8483C72.4773 30.3681 71.7818 30.3304 71.3604 30.7519L30.6957 71.4165Z" fill="black"/>
</svg>
