<svg width="21" height="20" viewBox="0 0 21 20" fill="none" xmlns="http://www.w3.org/2000/svg">
<path d="M15.7619 5.86719V16.8516H6.09766V5.86719H6.11938H6.14363H6.16784H6.19202H6.21615H6.24025H6.26431H6.28833H6.31232H6.33627H6.36018H6.38405H6.40789H6.43169H6.45546H6.47918H6.50288H6.52653H6.55016H6.57374H6.59729H6.62081H6.64429H6.66774H6.69115H6.71452H6.73787H6.76117H6.78445H6.80769H6.8309H6.85407H6.87721H6.90032H6.9234H6.94644H6.96945H6.99242H7.01537H7.03828H7.06116H7.08401H7.10683H7.12962H7.15237H7.1751H7.19779H7.22045H7.24309H7.26569H7.28826H7.3108H7.33332H7.3558H7.37825H7.40067H7.42307H7.44544H7.46777H7.49008H7.51236H7.53461H7.55684H7.57903H7.6012H7.62334H7.64545H7.66754H7.6896H7.71163H7.73364H7.75561H7.77757H7.79949H7.82139H7.84327H7.86511H7.88694H7.90874H7.93051H7.95226H7.97398H7.99568H8.01735H8.039H8.06062H8.08222H8.1038H8.12536H8.14689H8.16839H8.18988H8.21134H8.23277H8.25419H8.27558H8.29695H8.3183H8.33963H8.36093H8.38222H8.40348H8.42472H8.44594H8.46714H8.48832H8.50947H8.53061H8.55173H8.57282H8.5939H8.61496H8.636H8.65701H8.67801H8.69899H8.71995H8.7409H8.76182H8.78273H8.80362H8.82449H8.84534H8.86617H8.88699H8.90779H8.92857H8.94934H8.97008H8.99082H9.01153H9.03223H9.05291H9.07358H9.09423H9.11487H9.13549H9.15609H9.17669H9.19726H9.21782H9.23837H9.2589H9.27942H9.29992H9.32041H9.34088H9.36135H9.3818H9.40223H9.42265H9.44306H9.46346H9.48385H9.50422H9.52458H9.54493H9.56526H9.58559H9.6059H9.6262H9.64649H9.66677H9.68704H9.7073H9.72755H9.74779H9.76802H9.78823H9.80844H9.82864H9.84883H9.86901H9.88918H9.90934H9.92949H9.94964H9.96977H9.9899H10.01H10.0301H10.0502H10.0703H10.0904H10.1105H10.1306H10.1507H10.1707H10.1908H10.2108H10.2309H10.2509H10.2709H10.291H10.311H10.331H10.351H10.371H10.391H10.411H10.431H10.451H10.471H10.4909H10.5109H10.5309H10.5508H10.5708H10.5908H10.6107H10.6307H10.6506H10.6706H10.6905H10.7105H10.7304H10.7504H10.7703H10.7902H10.8102H10.8301H10.8501H10.87H10.8899H10.9099H10.9298H10.9497H10.9697H10.9896H11.0095H11.0295H11.0494H11.0693H11.0893H11.1092H11.1292H11.1491H11.1691H11.189H11.209H11.2289H11.2489H11.2688H11.2888H11.3087H11.3287H11.3487H11.3687H11.3886H11.4086H11.4286H11.4486H11.4686H11.4886H11.5086H11.5286H11.5486H11.5686H11.5887H11.6087H11.6287H11.6488H11.6688H11.6889H11.7089H11.729H11.7491H11.7692H11.7893H11.8093H11.8295H11.8496H11.8697H11.8898H11.9099H11.9301H11.9502H11.9704H11.9906H12.0108H12.0309H12.0511H12.0714H12.0916H12.1118H12.132H12.1523H12.1725H12.1928H12.2131H12.2334H12.2537H12.274H12.2943H12.3147H12.335H12.3554H12.3757H12.3961H12.4165H12.4369H12.4574H12.4778H12.4982H12.5187H12.5392H12.5597H12.5802H12.6007H12.6212H12.6418H12.6623H12.6829H12.7035H12.7241H12.7447H12.7654H12.786H12.8067H12.8274H12.8481H12.8688H12.8895H12.9103H12.931H12.9518H12.9726H12.9934H13.0143H13.0351H13.056H13.0769H13.0978H13.1187H13.1396H13.1606H13.1816H13.2026H13.2236H13.2446H13.2657H13.2868H13.3079H13.329H13.3501H13.3713H13.3924H13.4136H13.4349H13.4561H13.4774H13.4987H13.52H13.5413H13.5626H13.584H13.6054H13.6268H13.6483H13.6697H13.6912H13.7127H13.7342H13.7558H13.7774H13.799H13.8206H13.8422H13.8639H13.8856H13.9073H13.9291H13.9509H13.9726H13.9945H14.0163H14.0382H14.0601H14.082H14.104H14.126H14.148H14.17H14.192H14.2141H14.2362H14.2584H14.2806H14.3028H14.325H14.3472H14.3695H14.3918H14.4142H14.4365H14.4589H14.4813H14.5038H14.5263H14.5488H14.5713H14.5939H14.6165H14.6391H14.6618H14.6845H14.7072H14.73H14.7528H14.7756H14.7984H14.8213H14.8442H14.8672H14.8901H14.9131H14.9362H14.9593H14.9824H15.0055H15.0287H15.0519H15.0751H15.0984H15.1217H15.1451H15.1684H15.1919H15.2153H15.2388H15.2623H15.2858H15.3094H15.3331H15.3567H15.3804H15.4041H15.4279H15.4517H15.4755H15.4994H15.5233H15.5473H15.5713H15.5953H15.6193H15.6434H15.6676H15.6917H15.716H15.7402H15.7619Z" stroke="black" stroke-width="1.5"/>
<path d="M13.2266 3.14844V5.80469H8.38281V3.14844H8.38291H8.39621H8.40949H8.42276H8.436H8.44923H8.46243H8.47562H8.48879H8.50194H8.51507H8.52818H8.54127H8.55434H8.5674H8.58044H8.59346H8.60646H8.61944H8.63241H8.64536H8.65829H8.6712H8.68409H8.69697H8.70983H8.72267H8.7355H8.74831H8.7611H8.77388H8.78663H8.79938H8.8121H8.82481H8.8375H8.85018H8.86284H8.87548H8.88811H8.90072H8.91332H8.9259H8.93846H8.95101H8.96355H8.97607H8.98857H9.00106H9.01353H9.02599H9.03844H9.05086H9.06328H9.07568H9.08807H9.10044H9.11279H9.12514H9.13747H9.14978H9.16208H9.17437H9.18665H9.19891H9.21115H9.22339H9.23561H9.24781H9.26001H9.27219H9.28436H9.29652H9.30866H9.32079H9.33291H9.34501H9.35711H9.36919H9.38126H9.39331H9.40536H9.41739H9.42942H9.44143H9.45343H9.46541H9.47739H9.48935H9.50131H9.51325H9.52518H9.53711H9.54902H9.56092H9.57281H9.58468H9.59655H9.60841H9.62026H9.6321H9.64393H9.65575H9.66755H9.67935H9.69114H9.70292H9.71469H9.72646H9.73821H9.74995H9.76169H9.77341H9.78513H9.79684H9.80854H9.82023H9.83191H9.84359H9.85525H9.86691H9.87856H9.89021H9.90184H9.91347H9.92509H9.9367H9.9483H9.9599H9.97149H9.98307H9.99465H10.0062H10.0178H10.0293H10.0409H10.0524H10.064H10.0755H10.087H10.0985H10.11H10.1216H10.133H10.1445H10.156H10.1675H10.179H10.1905H10.2019H10.2134H10.2248H10.2363H10.2477H10.2592H10.2706H10.2821H10.2935H10.3049H10.3163H10.3277H10.3392H10.3506H10.362H10.3734H10.3848H10.3962H10.4075H10.4189H10.4303H10.4417H10.4531H10.4644H10.4758H10.4872H10.4985H10.5099H10.5213H10.5326H10.544H10.5553H10.5667H10.578H10.5894H10.6007H10.612H10.6234H10.6347H10.6461H10.6574H10.6687H10.6801H10.6914H10.7027H10.7141H10.7254H10.7367H10.748H10.7594H10.7707H10.782H10.7934H10.8047H10.816H10.8273H10.8387H10.85H10.8613H10.8727H10.884H10.8953H10.9066H10.918H10.9293H10.9406H10.952H10.9633H10.9747H10.986H10.9973H11.0087H11.02H11.0314H11.0427H11.0541H11.0654H11.0768H11.0881H11.0995H11.1108H11.1222H11.1336H11.1449H11.1563H11.1677H11.1791H11.1905H11.2018H11.2132H11.2246H11.236H11.2474H11.2588H11.2702H11.2816H11.293H11.3045H11.3159H11.3273H11.3388H11.3502H11.3616H11.3731H11.3845H11.396H11.4074H11.4189H11.4304H11.4419H11.4533H11.4648H11.4763H11.4878H11.4993H11.5108H11.5224H11.5339H11.5454H11.5569H11.5685H11.58H11.5916H11.6032H11.6147H11.6263H11.6379H11.6495H11.6611H11.6727H11.6843H11.6959H11.7075H11.7192H11.7308H11.7425H11.7541H11.7658H11.7775H11.7891H11.8008H11.8125H11.8242H11.836H11.8477H11.8594H11.8712H11.8829H11.8947H11.9065H11.9182H11.93H11.9418H11.9536H11.9654H11.9773H11.9891H12.001H12.0128H12.0247H12.0366H12.0485H12.0604H12.0723H12.0842H12.0961H12.1081H12.12H12.132H12.144H12.1559H12.1679H12.18H12.192H12.204H12.2161H12.2281H12.2402H12.2523H12.2644H12.2765H12.2886H12.3007H12.3129H12.325H12.3372H12.3494H12.3616H12.3738H12.386H12.3982H12.4105H12.4227H12.435H12.4473H12.4596H12.4719H12.4842H12.4966H12.5089H12.5213H12.5337H12.5461H12.5585H12.5709H12.5834H12.5958H12.6083H12.6208H12.6333H12.6458H12.6584H12.6709H12.6835H12.6961H12.7087H12.7213H12.7339H12.7465H12.7592H12.7719H12.7846H12.7973H12.81H12.8227H12.8355H12.8483H12.8611H12.8739H12.8867H12.8995H12.9124H12.9253H12.9382H12.9511H12.964H12.977H12.9899H13.0029H13.0159H13.0289H13.042H13.055H13.0681H13.0812H13.0943H13.1074H13.1206H13.1338H13.1469H13.1601H13.1734H13.1866H13.1999H13.2132H13.2265H13.2266Z" stroke="black" stroke-width="1.5"/>
<path d="M3.49219 5.86719L18.1172 5.86719" stroke="black" stroke-width="1.5"/>
<path d="M12.7272 8.47656V13.7891" stroke="black" stroke-width="1.5"/>
<path d="M9.1272 8.47656V13.7891" stroke="black" stroke-width="1.5"/>
</svg>
