<?xml version="1.0" encoding="UTF-8" standalone="no"?>
<!DOCTYPE svg PUBLIC "-//W3C//DTD SVG 1.1//EN"
 "http://www.w3.org/Graphics/SVG/1.1/DTD/svg11.dtd">
<!-- Generated by graphviz version 2.43.0 (0)
 -->
<!-- Title: StoryGraph Pages: 1 -->
<svg width="121pt" height="326pt"
 viewBox="0.00 0.00 121.00 326.00" xmlns="http://www.w3.org/2000/svg" xmlns:xlink="http://www.w3.org/1999/xlink">
<g id="graph0" class="graph" transform="scale(1 1) rotate(0) translate(4 322)">
<title>StoryGraph</title>
<polygon fill="white" stroke="transparent" points="-4,4 -4,-322 117,-322 117,4 -4,4"/>
<g id="clust1" class="cluster">
<title>cluster_0</title>
<polygon fill="lightgrey" stroke="lightgrey" points="8,-163 8,-310 82,-310 82,-163 8,-163"/>
<text text-anchor="middle" x="45" y="-294.8" font-family="Times,serif" font-size="14.00">Start</text>
</g>
<g id="clust2" class="cluster">
<title>cluster_1</title>
<polygon fill="lightgrey" stroke="lightgrey" points="8,-8 8,-155 105,-155 105,-8 8,-8"/>
<text text-anchor="middle" x="56.5" y="-139.8" font-family="Times,serif" font-size="14.00">Other node</text>
</g>
<!-- startInput -->
<g id="node1" class="node">
<title>startInput</title>
<polygon fill="grey" stroke="grey" points="72,-279 18,-279 18,-243 72,-243 72,-279"/>
<text text-anchor="middle" x="45" y="-257.3" font-family="Arial" font-size="14.00">Input</text>
</g>
<!-- startDefault -->
<g id="node2" class="node">
<title>startDefault</title>
<polygon fill="white" stroke="white" points="73.5,-207 16.5,-207 16.5,-171 73.5,-171 73.5,-207"/>
<text text-anchor="middle" x="45" y="-185.3" font-family="Arial" font-size="14.00">default</text>
</g>
<!-- startInput&#45;&gt;startDefault -->
<g id="edge1" class="edge">
<title>startInput&#45;&gt;startDefault</title>
<path fill="none" stroke="black" d="M45,-242.7C45,-234.98 45,-225.71 45,-217.11"/>
<polygon fill="black" stroke="black" points="48.5,-217.1 45,-207.1 41.5,-217.1 48.5,-217.1"/>
</g>
<!-- mondayInput -->
<g id="node3" class="node">
<title>mondayInput</title>
<polygon fill="grey" stroke="grey" points="72,-124 18,-124 18,-88 72,-88 72,-124"/>
<text text-anchor="middle" x="45" y="-102.3" font-family="Arial" font-size="14.00">Input</text>
</g>
<!-- startDefault&#45;&gt;mondayInput -->
<g id="edge3" class="edge">
<title>startDefault&#45;&gt;mondayInput</title>
<path fill="none" stroke="black" d="M45,-170.82C45,-160.19 45,-146.31 45,-134.2"/>
<polygon fill="black" stroke="black" points="48.5,-134.15 45,-124.15 41.5,-134.15 48.5,-134.15"/>
</g>
<!-- mondayDefault -->
<g id="node4" class="node">
<title>mondayDefault</title>
<polygon fill="white" stroke="white" points="73.5,-52 16.5,-52 16.5,-16 73.5,-16 73.5,-52"/>
<text text-anchor="middle" x="45" y="-30.3" font-family="Arial" font-size="14.00">default</text>
</g>
<!-- mondayInput&#45;&gt;mondayDefault -->
<g id="edge2" class="edge">
<title>mondayInput&#45;&gt;mondayDefault</title>
<path fill="none" stroke="black" d="M45,-87.7C45,-79.98 45,-70.71 45,-62.11"/>
<polygon fill="black" stroke="black" points="48.5,-62.1 45,-52.1 41.5,-62.1 48.5,-62.1"/>
</g>
</g>
</svg>
