<?xml version="1.0" encoding="UTF-8" standalone="no"?>
<!DOCTYPE svg PUBLIC "-//W3C//DTD SVG 1.1//EN"
 "http://www.w3.org/Graphics/SVG/1.1/DTD/svg11.dtd">
<!-- Generated by graphviz version 2.43.0 (0)
 -->
<!-- Title: Connection Pages: 1 -->
<svg width="437pt" height="813pt"
 viewBox="0.00 0.00 437.00 813.00" xmlns="http://www.w3.org/2000/svg" xmlns:xlink="http://www.w3.org/1999/xlink">
<g id="graph0" class="graph" transform="scale(1 1) rotate(0) translate(4 809)">
<title>Connection</title>
<polygon fill="white" stroke="transparent" points="-4,4 -4,-809 433,-809 433,4 -4,4"/>
<g id="clust1" class="cluster">
<title>cluster_node_a</title>
<polygon fill="none" stroke="black" points="8,-447 8,-797 390,-797 390,-447 8,-447"/>
<text text-anchor="middle" x="199" y="-781.8" font-family="Times,serif" font-size="14.00">NODE_A</text>
</g>
<g id="clust2" class="cluster">
<title>cluster_in_nodes_a</title>
<polygon fill="none" stroke="black" points="46,-691 46,-766 204,-766 204,-691 46,-691"/>
<text text-anchor="middle" x="125" y="-750.8" font-family="Times,serif" font-size="14.00">IN_NODES</text>
</g>
<g id="clust5" class="cluster">
<title>cluster_node_b</title>
<polygon fill="none" stroke="black" points="39,-8 39,-303 421,-303 421,-8 39,-8"/>
<text text-anchor="middle" x="230" y="-287.8" font-family="Times,serif" font-size="14.00">NODE_B</text>
</g>
<g id="clust6" class="cluster">
<title>cluster_in_nodes_b</title>
<polygon fill="none" stroke="black" points="55,-197 55,-272 213,-272 213,-197 55,-197"/>
<text text-anchor="middle" x="134" y="-256.8" font-family="Times,serif" font-size="14.00">IN_NODES</text>
</g>
<!-- NODE_A -->
<g id="node1" class="node">
<title>NODE_A</title>
<polygon fill="none" stroke="black" points="155.5,-633 50.5,-633 50.5,-528 155.5,-528 155.5,-633"/>
<polyline fill="none" stroke="black" points="62.5,-633 50.5,-621 "/>
<polyline fill="none" stroke="black" points="50.5,-540 62.5,-528 "/>
<polyline fill="none" stroke="black" points="143.5,-528 155.5,-540 "/>
<polyline fill="none" stroke="black" points="155.5,-621 143.5,-633 "/>
<text text-anchor="middle" x="103" y="-599.8" font-family="Times,serif" font-size="14.00">NODE_A</text>
<text text-anchor="middle" x="103" y="-568.8" font-family="Times,serif" font-size="14.00">script_cell_1</text>
<text text-anchor="middle" x="103" y="-553.8" font-family="Times,serif" font-size="14.00">script_cell_2</text>
</g>
<!-- out_node_door_a_1 -->
<g id="node3" class="node">
<title>out_node_door_a_1</title>
<ellipse fill="none" stroke="black" cx="103" cy="-473" rx="87.18" ry="18"/>
<text text-anchor="middle" x="103" y="-469.3" font-family="Times,serif" font-size="14.00">out_node_door 1</text>
</g>
<!-- NODE_A&#45;&gt;out_node_door_a_1 -->
<g id="edge5" class="edge">
<title>NODE_A&#45;&gt;out_node_door_a_1</title>
<path fill="none" stroke="red" stroke-dasharray="5,2" d="M96.25,-527.99C96.23,-518.82 96.47,-509.61 96.99,-501.45"/>
<polygon fill="red" stroke="red" points="100.49,-501.69 97.83,-491.43 93.51,-501.1 100.49,-501.69"/>
</g>
<!-- in_node_door_a -->
<g id="node2" class="node">
<title>in_node_door_a</title>
<ellipse fill="none" stroke="black" cx="125" cy="-717" rx="71.49" ry="18"/>
<text text-anchor="middle" x="125" y="-713.3" font-family="Times,serif" font-size="14.00">in_node_door</text>
</g>
<!-- in_node_door_a&#45;&gt;NODE_A -->
<g id="edge1" class="edge">
<title>in_node_door_a&#45;&gt;NODE_A</title>
<path fill="none" stroke="black" d="M86.97,-701.73C78.24,-696.57 70.05,-689.78 65,-681 58.11,-669 58.49,-655.51 62.49,-642.43"/>
<polygon fill="black" stroke="black" points="65.79,-643.6 65.98,-633.01 59.22,-641.17 65.79,-643.6"/>
<text text-anchor="middle" x="99.5" y="-669.8" font-family="Times,serif" font-size="14.00">DB</text>
<text text-anchor="middle" x="99.5" y="-654.8" font-family="Times,serif" font-size="14.00">reference</text>
</g>
<!-- in_node_door_a&#45;&gt;NODE_A -->
<g id="edge4" class="edge">
<title>in_node_door_a&#45;&gt;NODE_A</title>
<path fill="none" stroke="red" stroke-dasharray="5,2" d="M130.55,-699.05C134.1,-685.86 137.44,-667.16 134,-651 133.41,-648.21 132.69,-645.4 131.88,-642.59"/>
<polygon fill="red" stroke="red" points="135.21,-641.51 128.8,-633.07 128.55,-643.67 135.21,-641.51"/>
<text text-anchor="middle" x="178" y="-669.8" font-family="Times,serif" font-size="14.00" fill="red">Engine</text>
<text text-anchor="middle" x="178" y="-654.8" font-family="Times,serif" font-size="14.00" fill="red">Progression</text>
</g>
<!-- out_node_door_a_1&#45;&gt;NODE_A -->
<g id="edge2" class="edge">
<title>out_node_door_a_1&#45;&gt;NODE_A</title>
<path fill="none" stroke="black" d="M108.17,-491.43C108.98,-498.92 109.47,-508.17 109.66,-517.83"/>
<polygon fill="black" stroke="black" points="106.16,-518.02 109.75,-527.99 113.16,-517.96 106.16,-518.02"/>
</g>
<!-- edge_ -->
<g id="node5" class="node">
<title>edge_</title>
<polygon fill="none" stroke="black" points="132,-404 72,-404 72,-344 132,-344 132,-404"/>
<polyline fill="none" stroke="black" points="84,-404 72,-392 "/>
<polyline fill="none" stroke="black" points="72,-356 84,-344 "/>
<polyline fill="none" stroke="black" points="120,-344 132,-356 "/>
<polyline fill="none" stroke="black" points="132,-392 120,-404 "/>
<text text-anchor="middle" x="102" y="-370.3" font-family="Times,serif" font-size="14.00">EDGE</text>
</g>
<!-- out_node_door_a_1&#45;&gt;edge_ -->
<g id="edge8" class="edge">
<title>out_node_door_a_1&#45;&gt;edge_</title>
<path fill="none" stroke="red" stroke-dasharray="5,2" d="M101.24,-454.93C100.73,-449.23 100.25,-442.85 100,-437 99.68,-429.6 99.68,-421.71 99.85,-414.11"/>
<polygon fill="red" stroke="red" points="103.35,-414.13 100.16,-404.02 96.35,-413.91 103.35,-414.13"/>
</g>
<!-- out_node_door_a_2 -->
<g id="node4" class="node">
<title>out_node_door_a_2</title>
<ellipse fill="none" stroke="black" cx="295" cy="-473" rx="87.18" ry="18"/>
<text text-anchor="middle" x="295" y="-469.3" font-family="Times,serif" font-size="14.00">out_node_door 2</text>
</g>
<!-- out_node_door_a_2&#45;&gt;NODE_A -->
<g id="edge3" class="edge">
<title>out_node_door_a_2&#45;&gt;NODE_A</title>
<path fill="none" stroke="black" d="M265.92,-489.98C239.16,-504.68 198.6,-526.97 164.65,-545.63"/>
<polygon fill="black" stroke="black" points="162.8,-542.65 155.72,-550.53 166.17,-548.78 162.8,-542.65"/>
</g>
<!-- edge_&#45;&gt;out_node_door_a_1 -->
<g id="edge6" class="edge">
<title>edge_&#45;&gt;out_node_door_a_1</title>
<path fill="none" stroke="black" d="M102.3,-404.37C102.43,-417.07 102.59,-431.86 102.72,-444.37"/>
<polygon fill="black" stroke="black" points="99.22,-444.69 102.82,-454.66 106.22,-444.62 99.22,-444.69"/>
<text text-anchor="middle" x="154" y="-425.8" font-family="Times,serif" font-size="14.00">out_node_door</text>
</g>
<!-- in_node_door_b -->
<g id="node6" class="node">
<title>in_node_door_b</title>
<ellipse fill="none" stroke="black" cx="134" cy="-223" rx="71.49" ry="18"/>
<text text-anchor="middle" x="134" y="-219.3" font-family="Times,serif" font-size="14.00">in_node_door</text>
</g>
<!-- edge_&#45;&gt;in_node_door_b -->
<g id="edge7" class="edge">
<title>edge_&#45;&gt;in_node_door_b</title>
<path fill="none" stroke="black" d="M71.73,-350.88C60.41,-339.75 51.49,-325.55 57,-311 66.61,-285.65 87.35,-262.93 104.89,-247.08"/>
<polygon fill="black" stroke="black" points="107.44,-249.5 112.67,-240.29 102.84,-244.22 107.44,-249.5"/>
<text text-anchor="middle" x="104" y="-314.8" font-family="Times,serif" font-size="14.00">in_node_door</text>
</g>
<!-- edge_&#45;&gt;in_node_door_b -->
<g id="edge9" class="edge">
<title>edge_&#45;&gt;in_node_door_b</title>
<path fill="none" stroke="red" stroke-dasharray="5,2" d="M132.1,-351.41C139.71,-344.27 146.88,-335.65 151,-326 161.4,-301.62 154.15,-271.44 146.15,-250.26"/>
<polygon fill="red" stroke="red" points="149.37,-248.88 142.36,-240.93 142.88,-251.51 149.37,-248.88"/>
</g>
<!-- NODE_B -->
<g id="node7" class="node">
<title>NODE_B</title>
<polygon fill="none" stroke="black" points="173.5,-168 94.5,-168 94.5,-89 173.5,-89 173.5,-168"/>
<polyline fill="none" stroke="black" points="106.5,-168 94.5,-156 "/>
<polyline fill="none" stroke="black" points="94.5,-101 106.5,-89 "/>
<polyline fill="none" stroke="black" points="161.5,-89 173.5,-101 "/>
<polyline fill="none" stroke="black" points="173.5,-156 161.5,-168 "/>
<text text-anchor="middle" x="134" y="-124.8" font-family="Times,serif" font-size="14.00">NODE_B</text>
</g>
<!-- in_node_door_b&#45;&gt;NODE_B -->
<g id="edge10" class="edge">
<title>in_node_door_b&#45;&gt;NODE_B</title>
<path fill="none" stroke="black" d="M128.64,-205.03C127.79,-197.37 127.33,-187.88 127.26,-178.25"/>
<polygon fill="black" stroke="black" points="130.76,-178.25 127.33,-168.23 123.76,-178.2 130.76,-178.25"/>
</g>
<!-- in_node_door_b&#45;&gt;NODE_B -->
<g id="edge13" class="edge">
<title>in_node_door_b&#45;&gt;NODE_B</title>
<path fill="none" stroke="red" stroke-dasharray="5,2" d="M139.36,-205.03C140.21,-197.37 140.67,-187.88 140.74,-178.25"/>
<polygon fill="red" stroke="red" points="144.24,-178.2 140.67,-168.23 137.24,-178.25 144.24,-178.2"/>
</g>
<!-- out_node_door_b_1 -->
<g id="node8" class="node">
<title>out_node_door_b_1</title>
<ellipse fill="none" stroke="black" cx="134" cy="-34" rx="87.18" ry="18"/>
<text text-anchor="middle" x="134" y="-30.3" font-family="Times,serif" font-size="14.00">out_node_door 1</text>
</g>
<!-- NODE_B&#45;&gt;out_node_door_b_1 -->
<g id="edge14" class="edge">
<title>NODE_B&#45;&gt;out_node_door_b_1</title>
<path fill="none" stroke="red" stroke-dasharray="5,2" d="M127.33,-88.81C127.14,-80 127.29,-70.81 127.77,-62.57"/>
<polygon fill="red" stroke="red" points="131.27,-62.65 128.59,-52.4 124.29,-62.08 131.27,-62.65"/>
</g>
<!-- out_node_door_b_1&#45;&gt;NODE_B -->
<g id="edge11" class="edge">
<title>out_node_door_b_1&#45;&gt;NODE_B</title>
<path fill="none" stroke="black" d="M139.41,-52.4C140.23,-59.95 140.67,-69.21 140.74,-78.62"/>
<polygon fill="black" stroke="black" points="137.24,-78.78 140.67,-88.81 144.24,-78.83 137.24,-78.78"/>
</g>
<!-- out_node_door_b_2 -->
<g id="node9" class="node">
<title>out_node_door_b_2</title>
<ellipse fill="none" stroke="black" cx="326" cy="-34" rx="87.18" ry="18"/>
<text text-anchor="middle" x="326" y="-30.3" font-family="Times,serif" font-size="14.00">out_node_door 2</text>
</g>
<!-- out_node_door_b_2&#45;&gt;NODE_B -->
<g id="edge12" class="edge">
<title>out_node_door_b_2&#45;&gt;NODE_B</title>
<path fill="none" stroke="black" d="M293.28,-50.76C263.08,-65.31 217.8,-87.13 183.23,-103.78"/>
<polygon fill="black" stroke="black" points="181.27,-100.84 173.78,-108.33 184.31,-107.15 181.27,-100.84"/>
</g>
</g>
</svg>
