<?xml version="1.0" encoding="UTF-8" standalone="no"?>
<!DOCTYPE svg PUBLIC "-//W3C//DTD SVG 1.1//EN"
 "http://www.w3.org/Graphics/SVG/1.1/DTD/svg11.dtd">
<!-- Generated by graphviz version 2.43.0 (0)
 -->
<!-- Title: StoryGraph Pages: 1 -->
<svg width="160pt" height="188pt"
 viewBox="0.00 0.00 160.09 188.00" xmlns="http://www.w3.org/2000/svg" xmlns:xlink="http://www.w3.org/1999/xlink">
<g id="graph0" class="graph" transform="scale(1 1) rotate(0) translate(4 184)">
<title>StoryGraph</title>
<polygon fill="white" stroke="transparent" points="-4,4 -4,-184 156.09,-184 156.09,4 -4,4"/>
<!-- Start -->
<g id="node1" class="node">
<title>Start</title>
<ellipse fill="lightgray" stroke="black" cx="76.04" cy="-162" rx="29.5" ry="18"/>
<text text-anchor="middle" x="76.04" y="-158.3" font-family="Arial" font-size="14.00">Start</text>
</g>
<!-- Stop music -->
<g id="node2" class="node">
<title>Stop music</title>
<ellipse fill="none" stroke="black" cx="76.04" cy="-90" rx="54.69" ry="18"/>
<text text-anchor="middle" x="76.04" y="-86.3" font-family="Arial" font-size="14.00">Stop music</text>
</g>
<!-- Start&#45;&gt;Stop music -->
<g id="edge1" class="edge">
<title>Start&#45;&gt;Stop music</title>
<path fill="none" stroke="black" d="M70.17,-144.05C69.35,-136.35 69.1,-127.03 69.44,-118.36"/>
<polygon fill="black" stroke="black" points="72.94,-118.49 70.13,-108.28 65.95,-118.01 72.94,-118.49"/>
</g>
<!-- Stop music&#45;&gt;Start -->
<g id="edge2" class="edge">
<title>Stop music&#45;&gt;Start</title>
<path fill="none" stroke="black" d="M81.96,-108.28C82.76,-116.03 82.98,-125.36 82.63,-134.01"/>
<polygon fill="black" stroke="black" points="79.14,-133.83 81.92,-144.05 86.12,-134.33 79.14,-133.83"/>
</g>
<!-- Play other music -->
<g id="node3" class="node">
<title>Play other music</title>
<ellipse fill="none" stroke="black" cx="76.04" cy="-18" rx="76.09" ry="18"/>
<text text-anchor="middle" x="76.04" y="-14.3" font-family="Arial" font-size="14.00">Play other music</text>
</g>
<!-- Stop music&#45;&gt;Play other music -->
<g id="edge3" class="edge">
<title>Stop music&#45;&gt;Play other music</title>
<path fill="none" stroke="black" d="M70.17,-72.05C69.35,-64.35 69.1,-55.03 69.44,-46.36"/>
<polygon fill="black" stroke="black" points="72.94,-46.49 70.13,-36.28 65.95,-46.01 72.94,-46.49"/>
</g>
<!-- Play other music&#45;&gt;Stop music -->
<g id="edge4" class="edge">
<title>Play other music&#45;&gt;Stop music</title>
<path fill="none" stroke="black" d="M81.96,-36.28C82.76,-44.03 82.98,-53.36 82.63,-62.01"/>
<polygon fill="black" stroke="black" points="79.14,-61.83 81.92,-72.05 86.12,-62.33 79.14,-61.83"/>
</g>
</g>
</svg>
