<?xml version="1.0" encoding="UTF-8" standalone="no"?>
<!DOCTYPE svg PUBLIC "-//W3C//DTD SVG 1.1//EN"
 "http://www.w3.org/Graphics/SVG/1.1/DTD/svg11.dtd">
<!-- Generated by graphviz version 2.43.0 (0)
 -->
<!-- Title: StoryGraph Pages: 1 -->
<svg width="217pt" height="353pt"
 viewBox="0.00 0.00 217.10 353.00" xmlns="http://www.w3.org/2000/svg" xmlns:xlink="http://www.w3.org/1999/xlink">
<g id="graph0" class="graph" transform="scale(1 1) rotate(0) translate(4 349)">
<title>StoryGraph</title>
<polygon fill="white" stroke="transparent" points="-4,4 -4,-349 213.1,-349 213.1,4 -4,4"/>
<g id="clust1" class="cluster">
<title>cluster_0</title>
<polygon fill="lightgrey" stroke="lightgrey" points="20.28,-189 20.28,-337 186.28,-337 186.28,-189 20.28,-189"/>
<text text-anchor="middle" x="103.28" y="-321.8" font-family="Times,serif" font-size="14.00">Start</text>
</g>
<g id="clust2" class="cluster">
<title>cluster_1</title>
<polygon fill="lightgrey" stroke="lightgrey" points="16.28,-8 16.28,-156 90.28,-156 90.28,-8 16.28,-8"/>
<text text-anchor="middle" x="53.28" y="-140.8" font-family="Times,serif" font-size="14.00">Monday</text>
</g>
<g id="clust3" class="cluster">
<title>cluster_2</title>
<polygon fill="lightgrey" stroke="lightgrey" points="116.28,-8 116.28,-156 199.28,-156 199.28,-8 116.28,-8"/>
<text text-anchor="middle" x="157.78" y="-140.8" font-family="Times,serif" font-size="14.00">otherDay</text>
</g>
<!-- startInput -->
<g id="node1" class="node">
<title>startInput</title>
<polygon fill="grey" stroke="grey" points="125.28,-306 71.28,-306 71.28,-270 125.28,-270 125.28,-306"/>
<text text-anchor="middle" x="98.28" y="-284.3" font-family="Arial" font-size="14.00">Input</text>
</g>
<!-- startDefault -->
<g id="node2" class="node">
<title>startDefault</title>
<polygon fill="white" stroke="white" points="177.78,-233 120.78,-233 120.78,-197 177.78,-197 177.78,-233"/>
<text text-anchor="middle" x="149.28" y="-211.3" font-family="Arial" font-size="14.00">default</text>
</g>
<!-- startInput&#45;&gt;startDefault -->
<g id="edge1" class="edge">
<title>startInput&#45;&gt;startDefault</title>
<path fill="none" stroke="black" d="M110.62,-269.81C116.76,-261.27 124.3,-250.77 131.09,-241.32"/>
<polygon fill="black" stroke="black" points="134.05,-243.19 137.04,-233.03 128.37,-239.11 134.05,-243.19"/>
</g>
<!-- startIsMonday -->
<g id="node3" class="node">
<title>startIsMonday</title>
<polygon fill="white" stroke="white" points="102.78,-233 27.78,-233 27.78,-197 102.78,-197 102.78,-233"/>
<text text-anchor="middle" x="65.28" y="-211.3" font-family="Arial" font-size="14.00">isMonday</text>
</g>
<!-- startInput&#45;&gt;startIsMonday -->
<g id="edge2" class="edge">
<title>startInput&#45;&gt;startIsMonday</title>
<path fill="none" stroke="black" d="M90.29,-269.81C86.44,-261.53 81.73,-251.41 77.45,-242.19"/>
<polygon fill="black" stroke="black" points="80.58,-240.62 73.19,-233.03 74.23,-243.57 80.58,-240.62"/>
</g>
<!-- otherDayInput -->
<g id="node6" class="node">
<title>otherDayInput</title>
<polygon fill="grey" stroke="grey" points="183.28,-125 129.28,-125 129.28,-89 183.28,-89 183.28,-125"/>
<text text-anchor="middle" x="156.28" y="-103.3" font-family="Arial" font-size="14.00">Input</text>
</g>
<!-- startDefault&#45;&gt;otherDayInput -->
<g id="edge6" class="edge">
<title>startDefault&#45;&gt;otherDayInput</title>
<path fill="none" stroke="black" d="M156.42,-196.85C158.4,-191.26 160.28,-184.96 161.28,-179 163.68,-164.57 162.79,-148.31 161.14,-134.99"/>
<polygon fill="black" stroke="black" points="164.6,-134.43 159.71,-125.03 157.67,-135.43 164.6,-134.43"/>
</g>
<!-- mondayInput -->
<g id="node4" class="node">
<title>mondayInput</title>
<polygon fill="grey" stroke="grey" points="81.28,-125 27.28,-125 27.28,-89 81.28,-89 81.28,-125"/>
<text text-anchor="middle" x="54.28" y="-103.3" font-family="Arial" font-size="14.00">Input</text>
</g>
<!-- startIsMonday&#45;&gt;mondayInput -->
<g id="edge5" class="edge">
<title>startIsMonday&#45;&gt;mondayInput</title>
<path fill="none" stroke="black" d="M53.2,-196.97C49.98,-191.49 46.93,-185.22 45.28,-179 41.5,-164.79 43.14,-148.54 46,-135.18"/>
<polygon fill="black" stroke="black" points="49.47,-135.72 48.46,-125.17 42.67,-134.04 49.47,-135.72"/>
<text text-anchor="middle" x="101.28" y="-167.8" font-family="Arial" font-size="14.00">today == &#39;monday&#39;</text>
</g>
<!-- mondayDefault -->
<g id="node5" class="node">
<title>mondayDefault</title>
<polygon fill="white" stroke="white" points="81.78,-52 24.78,-52 24.78,-16 81.78,-16 81.78,-52"/>
<text text-anchor="middle" x="53.28" y="-30.3" font-family="Arial" font-size="14.00">default</text>
</g>
<!-- mondayInput&#45;&gt;mondayDefault -->
<g id="edge3" class="edge">
<title>mondayInput&#45;&gt;mondayDefault</title>
<path fill="none" stroke="black" d="M54.03,-88.81C53.92,-80.79 53.78,-71.05 53.66,-62.07"/>
<polygon fill="black" stroke="black" points="57.16,-61.98 53.52,-52.03 50.16,-62.08 57.16,-61.98"/>
</g>
<!-- mondayDefault&#45;&gt;startInput -->
<g id="edge8" class="edge">
<title>mondayDefault&#45;&gt;startInput</title>
<path fill="none" stroke="black" d="M38.45,-52.19C30.81,-62.21 22.27,-75.5 18.28,-89 0.13,-150.37 -10.96,-176.59 19.28,-233 28.46,-250.14 45.76,-262.89 61.83,-271.69"/>
<polygon fill="black" stroke="black" points="60.59,-274.98 71.08,-276.41 63.77,-268.75 60.59,-274.98"/>
</g>
<!-- otherDayDefault -->
<g id="node7" class="node">
<title>otherDayDefault</title>
<polygon fill="white" stroke="white" points="187.78,-52 130.78,-52 130.78,-16 187.78,-16 187.78,-52"/>
<text text-anchor="middle" x="159.28" y="-30.3" font-family="Arial" font-size="14.00">default</text>
</g>
<!-- otherDayInput&#45;&gt;otherDayDefault -->
<g id="edge4" class="edge">
<title>otherDayInput&#45;&gt;otherDayDefault</title>
<path fill="none" stroke="black" d="M157,-88.81C157.34,-80.79 157.75,-71.05 158.13,-62.07"/>
<polygon fill="black" stroke="black" points="161.63,-62.17 158.56,-52.03 154.64,-61.87 161.63,-62.17"/>
</g>
<!-- otherDayDefault&#45;&gt;startInput -->
<g id="edge7" class="edge">
<title>otherDayDefault&#45;&gt;startInput</title>
<path fill="none" stroke="black" d="M173.26,-52.32C180.47,-62.38 188.53,-75.67 192.28,-89 209.62,-150.64 220.48,-178.24 187.28,-233 175.49,-252.43 153.81,-265.8 134.8,-274.38"/>
<polygon fill="black" stroke="black" points="133.3,-271.21 125.45,-278.32 136.02,-277.66 133.3,-271.21"/>
</g>
</g>
</svg>
