<?xml version="1.0" encoding="UTF-8" standalone="no"?>
<!DOCTYPE svg PUBLIC "-//W3C//DTD SVG 1.1//EN"
 "http://www.w3.org/Graphics/SVG/1.1/DTD/svg11.dtd">
<!-- Generated by graphviz version 2.43.0 (0)
 -->
<!-- Title: Gencaster Pages: 1 -->
<svg width="312pt" height="392pt"
 viewBox="0.00 0.00 311.50 392.00" xmlns="http://www.w3.org/2000/svg" xmlns:xlink="http://www.w3.org/1999/xlink">
<g id="graph0" class="graph" transform="scale(1 1) rotate(0) translate(4 388)">
<title>Gencaster</title>
<polygon fill="white" stroke="transparent" points="-4,4 -4,-388 307.5,-388 307.5,4 -4,4"/>
<!-- Caster sound -->
<g id="node1" class="node">
<title>Caster sound</title>
<polygon fill="none" stroke="black" points="147,-210 50,-210 50,-174 147,-174 147,-210"/>
<text text-anchor="middle" x="98.5" y="-188.3" font-family="Arial" font-size="14.00">Caster sound</text>
</g>
<!-- Frontend -->
<g id="node3" class="node">
<title>Frontend</title>
<polygon fill="none" stroke="black" points="71,-123 0,-123 0,-87 71,-87 71,-123"/>
<text text-anchor="middle" x="35.5" y="-101.3" font-family="Arial" font-size="14.00">Frontend</text>
</g>
<!-- Caster sound&#45;&gt;Frontend -->
<g id="edge5" class="edge">
<title>Caster sound&#45;&gt;Frontend</title>
<path fill="none" stroke="black" d="M79.74,-165.69C71.72,-154.87 62.37,-142.25 54.34,-131.42"/>
<polygon fill="black" stroke="black" points="76.98,-167.85 85.75,-173.8 82.61,-163.68 76.98,-167.85"/>
<polygon fill="black" stroke="black" points="57,-129.13 48.23,-123.18 51.37,-133.29 57,-129.13"/>
<text text-anchor="middle" x="99.5" y="-144.8" font-family="Arial" font-size="14.00">WebRTC</text>
</g>
<!-- Backend -->
<g id="node2" class="node">
<title>Backend</title>
<polygon fill="none" stroke="black" points="204,-384 135,-384 135,-348 204,-348 204,-384"/>
<text text-anchor="middle" x="169.5" y="-362.3" font-family="Arial" font-size="14.00">Backend</text>
</g>
<!-- Backend&#45;&gt;Frontend -->
<g id="edge3" class="edge">
<title>Backend&#45;&gt;Frontend</title>
<path fill="none" stroke="black" d="M125.22,-352.83C96.9,-342.66 61.94,-325.17 42.5,-297 8.42,-247.61 18.99,-172.69 28.14,-132.95"/>
<polygon fill="black" stroke="black" points="124.33,-356.22 134.92,-356.13 126.58,-349.6 124.33,-356.22"/>
<polygon fill="black" stroke="black" points="31.56,-133.73 30.53,-123.19 24.75,-132.07 31.56,-133.73"/>
<text text-anchor="middle" x="51.5" y="-231.8" font-family="Arial" font-size="14.00">GraphQL</text>
</g>
<!-- OSC server -->
<g id="node5" class="node">
<title>OSC server</title>
<polygon fill="none" stroke="black" points="139.5,-297 51.5,-297 51.5,-261 139.5,-261 139.5,-297"/>
<text text-anchor="middle" x="95.5" y="-275.3" font-family="Arial" font-size="14.00">OSC server</text>
</g>
<!-- Backend&#45;&gt;OSC server -->
<g id="edge1" class="edge">
<title>Backend&#45;&gt;OSC server</title>
<path fill="none" stroke="black" d="M147.81,-340.08C138.14,-328.98 126.79,-315.94 117.13,-304.85"/>
<polygon fill="black" stroke="black" points="145.32,-342.55 154.52,-347.8 150.6,-337.96 145.32,-342.55"/>
<polygon fill="black" stroke="black" points="119.66,-302.42 110.45,-297.18 114.38,-307.02 119.66,-302.42"/>
<text text-anchor="middle" x="153" y="-318.8" font-family="Arial" font-size="14.00">OSC</text>
</g>
<!-- Database -->
<g id="node7" class="node">
<title>Database</title>
<path fill="none" stroke="black" d="M231.5,-293.73C231.5,-295.53 214.92,-297 194.5,-297 174.08,-297 157.5,-295.53 157.5,-293.73 157.5,-293.73 157.5,-264.27 157.5,-264.27 157.5,-262.47 174.08,-261 194.5,-261 214.92,-261 231.5,-262.47 231.5,-264.27 231.5,-264.27 231.5,-293.73 231.5,-293.73"/>
<path fill="none" stroke="black" d="M231.5,-293.73C231.5,-291.92 214.92,-290.45 194.5,-290.45 174.08,-290.45 157.5,-291.92 157.5,-293.73"/>
<text text-anchor="middle" x="194.5" y="-275.3" font-family="Arial" font-size="14.00">Database</text>
</g>
<!-- Backend&#45;&gt;Database -->
<g id="edge7" class="edge">
<title>Backend&#45;&gt;Database</title>
<path fill="none" stroke="black" d="M177.4,-338.13C180.33,-328.18 183.64,-316.91 186.57,-306.96"/>
<polygon fill="black" stroke="black" points="174.02,-337.22 174.56,-347.8 180.74,-339.19 174.02,-337.22"/>
<polygon fill="black" stroke="black" points="189.98,-307.76 189.45,-297.18 183.27,-305.78 189.98,-307.76"/>
</g>
<!-- Editor -->
<g id="node4" class="node">
<title>Editor</title>
<polygon fill="none" stroke="black" points="303.5,-297 249.5,-297 249.5,-261 303.5,-261 303.5,-297"/>
<text text-anchor="middle" x="276.5" y="-275.3" font-family="Arial" font-size="14.00">Editor</text>
</g>
<!-- Editor&#45;&gt;Backend -->
<g id="edge6" class="edge">
<title>Editor&#45;&gt;Backend</title>
<path fill="none" stroke="black" d="M247.01,-303.43C232.2,-315.19 214.29,-329.42 199.42,-341.23"/>
<polygon fill="black" stroke="black" points="249.23,-306.14 254.88,-297.18 244.87,-300.66 249.23,-306.14"/>
<polygon fill="black" stroke="black" points="196.81,-338.84 191.15,-347.8 201.16,-344.32 196.81,-338.84"/>
<text text-anchor="middle" x="258.5" y="-318.8" font-family="Arial" font-size="14.00">GraphQL</text>
</g>
<!-- OSC server&#45;&gt;Caster sound -->
<g id="edge2" class="edge">
<title>OSC server&#45;&gt;Caster sound</title>
<path fill="none" stroke="black" d="M96.46,-250.73C96.8,-241.06 97.19,-230.17 97.53,-220.48"/>
<polygon fill="black" stroke="black" points="92.96,-250.68 96.11,-260.8 99.96,-250.93 92.96,-250.68"/>
<polygon fill="black" stroke="black" points="101.04,-220.29 97.89,-210.18 94.04,-220.05 101.04,-220.29"/>
<text text-anchor="middle" x="113" y="-231.8" font-family="Arial" font-size="14.00">OSC</text>
</g>
<!-- Listener -->
<g id="node6" class="node">
<title>Listener</title>
<polygon fill="#adff00" stroke="#adff00" points="68,-30 3,-30 3,-6 68,-6 68,-30"/>
<polyline fill="none" stroke="#adff00" points="6,-19.5 9,-16.5 "/>
<polyline fill="none" stroke="#adff00" points="6,-16.5 9,-19.5 "/>
<polyline fill="none" stroke="#adff00" points="6,-9 65,-9 "/>
<text text-anchor="middle" x="35.5" y="-14.3" font-family="Arial" font-size="14.00">Listener</text>
</g>
<!-- Listener&#45;&gt;Frontend -->
<g id="edge4" class="edge">
<title>Listener&#45;&gt;Frontend</title>
<path fill="none" stroke="black" d="M35.5,-36.18C35.5,-47.81 35.5,-63.42 35.5,-76.73"/>
<polygon fill="black" stroke="black" points="32,-76.8 35.5,-86.8 39,-76.8 32,-76.8"/>
<text text-anchor="middle" x="47" y="-57.8" font-family="Arial" font-size="14.00">http</text>
</g>
</g>
</svg>
