<?xml version="1.0" encoding="UTF-8" standalone="no"?>
<!DOCTYPE svg PUBLIC "-//W3C//DTD SVG 1.1//EN"
 "http://www.w3.org/Graphics/SVG/1.1/DTD/svg11.dtd">
<!-- Generated by graphviz version 2.43.0 (0)
 -->
<!-- Title: StoryGraph Pages: 1 -->
<svg width="245pt" height="353pt"
 viewBox="0.00 0.00 245.00 353.00" xmlns="http://www.w3.org/2000/svg" xmlns:xlink="http://www.w3.org/1999/xlink">
<g id="graph0" class="graph" transform="scale(1 1) rotate(0) translate(4 349)">
<title>StoryGraph</title>
<polygon fill="white" stroke="transparent" points="-4,4 -4,-349 241,-349 241,4 -4,4"/>
<g id="clust1" class="cluster">
<title>cluster_0</title>
<polygon fill="lightgrey" stroke="lightgrey" points="81,-189 81,-337 155,-337 155,-189 81,-189"/>
<text text-anchor="middle" x="118" y="-321.8" font-family="Times,serif" font-size="14.00">Start</text>
</g>
<g id="clust2" class="cluster">
<title>cluster_1</title>
<polygon fill="lightgrey" stroke="lightgrey" points="8,-8 8,-156 108,-156 108,-8 8,-8"/>
<text text-anchor="middle" x="58" y="-140.8" font-family="Times,serif" font-size="14.00">Other Node</text>
</g>
<g id="clust3" class="cluster">
<title>cluster_2</title>
<polygon fill="lightgrey" stroke="lightgrey" points="116,-8 116,-156 229,-156 229,-8 116,-8"/>
<text text-anchor="middle" x="172.5" y="-140.8" font-family="Times,serif" font-size="14.00">Another node</text>
</g>
<!-- startInput -->
<g id="node1" class="node">
<title>startInput</title>
<polygon fill="grey" stroke="grey" points="145,-306 91,-306 91,-270 145,-270 145,-306"/>
<text text-anchor="middle" x="118" y="-284.3" font-family="Arial" font-size="14.00">Input</text>
</g>
<!-- startDefault -->
<g id="node2" class="node">
<title>startDefault</title>
<polygon fill="white" stroke="white" points="146.5,-233 89.5,-233 89.5,-197 146.5,-197 146.5,-233"/>
<text text-anchor="middle" x="118" y="-211.3" font-family="Arial" font-size="14.00">default</text>
</g>
<!-- startInput&#45;&gt;startDefault -->
<g id="edge1" class="edge">
<title>startInput&#45;&gt;startDefault</title>
<path fill="none" stroke="black" d="M118,-269.81C118,-261.79 118,-252.05 118,-243.07"/>
<polygon fill="black" stroke="black" points="121.5,-243.03 118,-233.03 114.5,-243.03 121.5,-243.03"/>
</g>
<!-- mondayInput -->
<g id="node3" class="node">
<title>mondayInput</title>
<polygon fill="grey" stroke="grey" points="99,-125 45,-125 45,-89 99,-89 99,-125"/>
<text text-anchor="middle" x="72" y="-103.3" font-family="Arial" font-size="14.00">Input</text>
</g>
<!-- startDefault&#45;&gt;mondayInput -->
<g id="edge4" class="edge">
<title>startDefault&#45;&gt;mondayInput</title>
<path fill="none" stroke="black" d="M110.61,-196.97C103.31,-180.15 92.04,-154.17 83.55,-134.62"/>
<polygon fill="black" stroke="black" points="86.72,-133.12 79.53,-125.34 80.3,-135.91 86.72,-133.12"/>
<text text-anchor="middle" x="81.05" y="-164.91" font-family="Arial" font-size="14.00">50%</text>
</g>
<!-- otherDayInput -->
<g id="node5" class="node">
<title>otherDayInput</title>
<polygon fill="grey" stroke="grey" points="179,-125 125,-125 125,-89 179,-89 179,-125"/>
<text text-anchor="middle" x="152" y="-103.3" font-family="Arial" font-size="14.00">Input</text>
</g>
<!-- startDefault&#45;&gt;otherDayInput -->
<g id="edge5" class="edge">
<title>startDefault&#45;&gt;otherDayInput</title>
<path fill="none" stroke="black" d="M123.46,-196.97C128.83,-180.22 137.11,-154.41 143.37,-134.89"/>
<polygon fill="black" stroke="black" points="146.72,-135.93 146.44,-125.34 140.05,-133.79 146.72,-135.93"/>
<text text-anchor="middle" x="147" y="-167.8" font-family="Arial" font-size="14.00">50%</text>
</g>
<!-- mondayDefault -->
<g id="node4" class="node">
<title>mondayDefault</title>
<polygon fill="white" stroke="white" points="99.5,-52 42.5,-52 42.5,-16 99.5,-16 99.5,-52"/>
<text text-anchor="middle" x="71" y="-30.3" font-family="Arial" font-size="14.00">default</text>
</g>
<!-- mondayInput&#45;&gt;mondayDefault -->
<g id="edge2" class="edge">
<title>mondayInput&#45;&gt;mondayDefault</title>
<path fill="none" stroke="black" d="M71.76,-88.81C71.64,-80.79 71.51,-71.05 71.38,-62.07"/>
<polygon fill="black" stroke="black" points="74.88,-61.98 71.24,-52.03 67.88,-62.08 74.88,-61.98"/>
</g>
<!-- otherDayDefault -->
<g id="node6" class="node">
<title>otherDayDefault</title>
<polygon fill="white" stroke="white" points="181.5,-52 124.5,-52 124.5,-16 181.5,-16 181.5,-52"/>
<text text-anchor="middle" x="153" y="-30.3" font-family="Arial" font-size="14.00">default</text>
</g>
<!-- otherDayInput&#45;&gt;otherDayDefault -->
<g id="edge3" class="edge">
<title>otherDayInput&#45;&gt;otherDayDefault</title>
<path fill="none" stroke="black" d="M152.24,-88.81C152.36,-80.79 152.49,-71.05 152.62,-62.07"/>
<polygon fill="black" stroke="black" points="156.12,-62.08 152.76,-52.03 149.12,-61.98 156.12,-62.08"/>
</g>
</g>
</svg>
