<?xml version="1.0" encoding="UTF-8" standalone="no"?>
<!DOCTYPE svg PUBLIC "-//W3C//DTD SVG 1.1//EN"
 "http://www.w3.org/Graphics/SVG/1.1/DTD/svg11.dtd">
<!-- Generated by graphviz version 2.43.0 (0)
 -->
<!-- Title: StoryGraph Pages: 1 -->
<svg width="256pt" height="116pt"
 viewBox="0.00 0.00 256.04 116.00" xmlns="http://www.w3.org/2000/svg" xmlns:xlink="http://www.w3.org/1999/xlink">
<g id="graph0" class="graph" transform="scale(1 1) rotate(0) translate(4 112)">
<title>StoryGraph</title>
<polygon fill="white" stroke="transparent" points="-4,4 -4,-112 252.04,-112 252.04,4 -4,4"/>
<!-- Start -->
<g id="node1" class="node">
<title>Start</title>
<ellipse fill="lightgray" stroke="black" cx="119.95" cy="-90" rx="29.5" ry="18"/>
<text text-anchor="middle" x="119.95" y="-86.3" font-family="Arial" font-size="14.00">Start</text>
</g>
<!-- Play music -->
<g id="node2" class="node">
<title>Play music</title>
<ellipse fill="none" stroke="black" cx="53.95" cy="-18" rx="53.89" ry="18"/>
<text text-anchor="middle" x="53.95" y="-14.3" font-family="Arial" font-size="14.00">Play music</text>
</g>
<!-- Start&#45;&gt;Play music -->
<g id="edge1" class="edge">
<title>Start&#45;&gt;Play music</title>
<path fill="none" stroke="black" d="M105.95,-74.15C97.38,-65.07 86.23,-53.24 76.45,-42.87"/>
<polygon fill="black" stroke="black" points="78.71,-40.17 69.3,-35.29 73.62,-44.97 78.71,-40.17"/>
</g>
<!-- Play podcast -->
<g id="node3" class="node">
<title>Play podcast</title>
<ellipse fill="none" stroke="black" cx="186.95" cy="-18" rx="61.19" ry="18"/>
<text text-anchor="middle" x="186.95" y="-14.3" font-family="Arial" font-size="14.00">Play podcast</text>
</g>
<!-- Start&#45;&gt;Play podcast -->
<g id="edge2" class="edge">
<title>Start&#45;&gt;Play podcast</title>
<path fill="none" stroke="black" d="M134.15,-74.15C142.72,-65.2 153.85,-53.58 163.68,-43.31"/>
<polygon fill="black" stroke="black" points="166.49,-45.43 170.88,-35.79 161.43,-40.59 166.49,-45.43"/>
</g>
</g>
</svg>
