<?xml version="1.0" encoding="UTF-8" standalone="no"?>
<!DOCTYPE svg PUBLIC "-//W3C//DTD SVG 1.1//EN"
 "http://www.w3.org/Graphics/SVG/1.1/DTD/svg11.dtd">
<!-- Generated by graphviz version 2.43.0 (0)
 -->
<!-- Title: StoryGraph Pages: 1 -->
<svg width="117pt" height="116pt"
 viewBox="0.00 0.00 117.19 116.00" xmlns="http://www.w3.org/2000/svg" xmlns:xlink="http://www.w3.org/1999/xlink">
<g id="graph0" class="graph" transform="scale(1 1) rotate(0) translate(4 112)">
<title>StoryGraph</title>
<polygon fill="white" stroke="transparent" points="-4,4 -4,-112 113.19,-112 113.19,4 -4,4"/>
<!-- Start -->
<g id="node1" class="node">
<title>Start</title>
<ellipse fill="lightgray" stroke="black" cx="54.6" cy="-90" rx="29.5" ry="18"/>
<text text-anchor="middle" x="54.6" y="-86.3" font-family="Arial" font-size="14.00">Start</text>
</g>
<!-- Stop music -->
<g id="node2" class="node">
<title>Stop music</title>
<ellipse fill="none" stroke="black" cx="54.6" cy="-18" rx="54.69" ry="18"/>
<text text-anchor="middle" x="54.6" y="-14.3" font-family="Arial" font-size="14.00">Stop music</text>
</g>
<!-- Start&#45;&gt;Stop music -->
<g id="edge1" class="edge">
<title>Start&#45;&gt;Stop music</title>
<path fill="none" stroke="black" d="M48.72,-72.05C47.9,-64.35 47.66,-55.03 47.99,-46.36"/>
<polygon fill="black" stroke="black" points="51.49,-46.49 48.68,-36.28 44.51,-46.01 51.49,-46.49"/>
</g>
<!-- Stop music&#45;&gt;Start -->
<g id="edge2" class="edge">
<title>Stop music&#45;&gt;Start</title>
<path fill="none" stroke="black" d="M60.51,-36.28C61.31,-44.03 61.54,-53.36 61.19,-62.01"/>
<polygon fill="black" stroke="black" points="57.69,-61.83 60.47,-72.05 64.67,-62.33 57.69,-61.83"/>
</g>
</g>
</svg>
